<?xml version="1.0" encoding="UTF-8" standalone="no"?>
<!-- Created with Inkscape (http://www.inkscape.org/) -->

<svg
   xmlns:dc="http://purl.org/dc/elements/1.1/"
   xmlns:cc="http://creativecommons.org/ns#"
   xmlns:rdf="http://www.w3.org/1999/02/22-rdf-syntax-ns#"
   xmlns:svg="http://www.w3.org/2000/svg"
   xmlns="http://www.w3.org/2000/svg"
   xmlns:sodipodi="http://sodipodi.sourceforge.net/DTD/sodipodi-0.dtd"
   xmlns:inkscape="http://www.inkscape.org/namespaces/inkscape"
   width="210mm"
   height="297mm"
   viewBox="0 0 744.09448819 1052.3622047"
   id="svg2"
   version="1.1"
   inkscape:version="0.91 r13725"
   sodipodi:docname="Gijon_Blanco.svg">
  <defs
     id="defs4">
    <clipPath
       id="clipPath83503"
       clipPathUnits="userSpaceOnUse">
      <path
         inkscape:connector-curvature="0"
         id="path83505"
         d="m 0,850.394 850.394,0 L 850.394,0 0,0 0,850.394 Z" />
    </clipPath>
  </defs>
  <sodipodi:namedview
     id="base"
     pagecolor="#ffffff"
     bordercolor="#666666"
     borderopacity="1.0"
     inkscape:pageopacity="0.0"
     inkscape:pageshadow="2"
     inkscape:zoom="0.35"
     inkscape:cx="-373.57143"
     inkscape:cy="748.57143"
     inkscape:document-units="px"
     inkscape:current-layer="g83497"
     showgrid="false"
     inkscape:window-width="1920"
     inkscape:window-height="1132"
     inkscape:window-x="1912"
     inkscape:window-y="-8"
     inkscape:window-maximized="1" />
  <metadata
     id="metadata7">
    <rdf:RDF>
      <cc:Work
         rdf:about="">
        <dc:format>image/svg+xml</dc:format>
        <dc:type
           rdf:resource="http://purl.org/dc/dcmitype/StillImage" />
        <dc:title></dc:title>
      </cc:Work>
    </rdf:RDF>
  </metadata>
  <g
     inkscape:label="Capa 1"
     inkscape:groupmode="layer"
     id="layer1">
    <g
       transform="matrix(1.25,0,0,-1.25,-905.06729,1245.6651)"
       inkscape:label="01 GIJON_LOGOTIPO"
       id="g83497">
      <g
         id="g83499"
         transform="translate(512,470.85714)">
        <g
           clip-path="url(#clipPath83503)"
           id="g83501">
          <g
             transform="translate(490.4438,480.5288)"
             id="g83545">
            <path
               inkscape:connector-curvature="0"
               id="path83547"
               style="fill:#ffffff;fill-opacity:1;fill-rule:nonzero;stroke:none"
               d="m 0,0 c 2.604,-1.302 6.652,0.454 8.531,1.685 5.996,3.94 18.699,12.648 24.5,16.88 0.692,0.503 1.809,1.314 2.766,2.164 0.219,0.194 0.433,0.39 0.631,0.604 0.32,0.323 0.584,0.635 0.779,0.938 1.014,1.449 1.621,3.2 1.621,5.104 0,4.914 -3.984,8.898 -8.896,8.898 -1.875,0 -3.666,-0.512 -5.047,-1.574 C 20.041,30.969 0.436,7.933 -0.402,6.842 -3.02,3.438 -1.26,0.631 0,0 m -83.965,11.579 c 0.522,0.48 0.947,0.979 1.317,1.484 0.851,1.046 1.441,2.249 1.601,3.597 0.569,4.7 -3.844,9.096 -9.865,9.821 -3.281,0.399 -6.336,-0.411 -8.547,-1.97 -0.564,-0.286 -1.137,-0.583 -1.59,-0.977 -3.246,-2.871 -7.54,-7.373 -9.42,-13.521 -3.223,-10.244 16.038,-7.819 26.504,1.566 m -112.156,-32.13 c -1.184,11.031 -8.082,15.694 -16.039,18.027 -13.379,3.863 -38.731,-2.99 -36.518,-23.046 1.442,-13.032 12.955,-23.46 33.059,-17.443 11.601,3.47 20.654,11.669 19.498,22.462 m 53.726,37.775 c 0.486,-5.6 -3.74,-10.504 -9.434,-10.952 -0.833,-0.065 -23.71,-2.517 -31.896,-10.471 8.469,-7.343 6.052,-35.692 -17.945,-43.81 13.395,0.647 20.357,-0.671 28.971,-4.73 21.64,-11.386 21.424,-39.608 16.916,-52.635 -4.963,-14.368 -25.863,-35.429 -52.572,-34.915 -30.999,0.596 -43.85,13.668 -50.23,26.132 -8.274,17.097 23.526,12.328 22.06,-0.308 -0.678,-5.817 10.482,-14.079 24.607,-14.353 16.404,-0.315 22.377,5.856 29.294,13.327 10.806,11.651 8.694,33.71 -0.428,45.272 -4.602,5.83 -15.172,11.587 -28.737,8.466 -2.789,-0.647 -5.331,-1.454 -7.078,-2.029 -5.739,-1.882 -8.27,-0.805 -8.278,1.111 -0.02,4.167 8.321,8.903 14.907,11.065 0,0 -6.586,-2.162 -13.992,-2.778 -17.399,-1.962 -31.425,4.862 -35.916,12.982 -15.982,28.857 15.346,44.249 30.793,47.795 8.006,1.839 25.449,3.362 37.2,-2.036 0,0 17.281,11.497 23.246,15.014 4.028,2.378 12.694,6.818 17.331,7.179 5.691,0.451 10.703,-3.724 11.181,-9.326 M 66.788,-60.092 c 0.959,15.055 6.42,34.878 6.42,40.477 0,5.944 -8.41,7.909 -11.781,7.909 -4.287,0 -13.252,0 -13.252,-10.881 0,-0.377 0.283,-10.977 0.861,-31.782 0.381,-13.928 2.381,-24.043 6.014,-30.346 1.717,-2.861 4.103,-4.292 7.152,-4.292 2.104,0 3.912,0.578 5.444,1.715 4.585,3.629 10.496,12.594 17.748,26.912 5.73,11.837 11.554,17.484 17.465,17.755 12.76,0.577 17.444,-14.073 21.016,-20.48 3.921,-7.021 6.452,-8.178 9.313,-7.372 1.147,0.32 2.885,1.696 2.885,3.802 0,1.337 -0.289,2.953 -0.863,4.866 -7.825,24.235 -18.608,36.357 -32.351,36.357 -9.731,0 -17.653,-3.72 -23.758,-11.165 -2.289,-3.053 -6.399,-10.878 -12.313,-23.475 m -86.823,38.133 c 8.314,2.627 4.222,15.221 2.851,17.148 -1.582,2.238 -4.816,5.691 -10.089,4.302 -20.402,-5.375 -38.972,-24.274 -37.933,-43.183 0.691,-12.608 4.828,-23.581 16.043,-32.708 11.214,-9.125 25.118,-13.239 38.077,-12.529 12.606,0.695 24.149,7.917 34.641,21.663 9.818,13.014 14.398,25.64 13.724,37.897 -0.422,7.706 -3.341,12.817 -8.748,15.33 -3.968,1.888 -9.978,2.61 -18.035,2.167 -8.58,-0.47 -16.621,-2.413 -22.557,-6.251 -2.537,-1.72 -3.763,-3.367 -3.679,-4.938 0.127,-2.28 1.838,-3.064 5.162,-2.882 2.279,0.127 3.008,0.713 4.672,1.351 8.01,3.05 32.472,7.988 33.349,-7.946 0.45,-8.236 -14.318,-40.629 -39.394,-40.629 -29.599,0 -39.461,31.474 -31.962,40.481 4.202,5.054 15.929,8.357 23.878,10.727 m -56.174,-48.902 c -0.635,9.646 -2.186,31.26 -3.182,42.994 -0.551,6.478 -2.539,16.24 -13.748,16.171 -14.144,-0.086 -15.174,-11.348 -14.727,-14.819 1.202,-9.421 5.514,-28.447 10.322,-43.131 4.763,-13.968 10.468,-55.698 -8.259,-69.718 -2.01,-1.507 -5.297,-2.885 -5.01,-4.824 0.348,-2.351 4.965,-3.389 8.076,-2.341 18.934,6.211 29.471,32.442 26.528,75.668 m -62.613,47.545 c 0.093,-6.678 2.313,-15.039 6.668,-25.098 4.623,-10.892 10.414,-16.752 14.654,-21.613 2.027,-2.324 5.803,-6.972 4.518,-11.863 -1.772,-6.749 -12.336,-9.314 -19.541,-4.845 -13.655,8.475 -20.683,30.36 -20.856,65.024 -0.055,1.772 0.139,3.753 0.457,5.165 0.907,4.001 6.787,5.352 9.143,4.662 3.213,-0.946 4.866,-4.753 4.957,-11.432" />
          </g>
        </g>
      </g>
    </g>
  </g>
</svg>
